<?xml version="1.0" encoding="UTF-8"?>
<svg id="Layer_1" data-name="Layer 1" xmlns="http://www.w3.org/2000/svg" viewBox="0 0 477.07 178.18">
  <defs>
    <style>
      .cls-1 {
        fill: #fff45f;
      }

      .cls-2 {
        fill: #fff;
      }
    </style>
  </defs>
  <g>
    <path class="cls-1" d="M157.91,130.19c-.16.94-.23,2.11-.23,3.35,0,1.33.16,2.34.7,3.28h-14.82c1.48-1.64,2.57-4.52,3.2-8.58l4.99-31.9c.16-.94.23-1.72.23-2.18,0-1.95-1.56-3.12-4.52-3.12-.31,0-1.01,0-2.03.23l2.96-6.16c.86-1.79,2.42-2.65,4.76-2.65,2.88,0,5.07,1.09,6.94,3.43,3.12-2.5,6.94-3.67,11.62-3.67,8.89,0,14.74,5.69,14.74,14.59,0,6.08-3.59,12.01-10.06,15.68-3.43,1.95-8.11,3.04-13.73,3.04h-2.5l-2.26,14.66ZM162.59,106.95c7.88,0,12.79-4.45,12.79-9.98,0-3.28-2.03-5.3-5.38-5.3-2.1,0-4.37.78-6.47,2.5l-2.11,12.79h1.17Z"/>
    <path class="cls-1" d="M197.37,122.24c-.31,1.87-.47,3.28-.47,4.13,0,2.57,1.17,3.9,3.59,3.9.55,0,1.33-.08,2.42-.23l-1.95,4.6c-.94,2.26-2.42,2.96-5.38,2.96-6.32,0-9.75-3.2-9.75-9.2,0-1.64.31-3.82.7-6.47l5.38-34.32c.31-1.87.47-3.2.47-3.9s-.08-1.56-.31-2.73l12.17-1.87-6.86,43.13Z"/>
    <path class="cls-1" d="M216.95,137.53c-7.33,0-12.56-5.62-12.56-14.59,0-5.93,1.64-11.23,4.84-15.6,4.13-5.69,9.98-8.81,15.44-8.81,3.51,0,6.16,1.17,8.03,3.51.86-1.87,2.03-2.73,3.59-2.73h6.86c-3.98,8.5-6.01,18.17-6.01,25.51,0,4.37,1.72,6.32,5.38,6.32h.62c-.62,3.98-3.2,6.24-6.63,6.24s-6.39-2.18-7.72-6.08c-3.04,4.06-7.18,6.24-11.86,6.24M218.75,111.94c-2.26,3.43-3.51,7.49-3.51,10.84,0,3.9,1.4,5.85,3.98,5.85,1.79,0,3.74-1.33,5.46-3.9,2.03-3.12,3.82-8.97,3.82-13.18,0-2.5-1.25-4.06-3.2-4.06-2.26,0-4.6,1.56-6.55,4.45"/>
    <path class="cls-1" d="M270.54,98.45c6.32,0,9.98,3.12,9.98,8.27,0,1.09-.16,2.26-.31,3.51l-2.34,14.9c-.08.7-.16,1.33-.16,1.79,0,2.34,1.33,3.43,3.9,3.43.7,0,1.48-.08,2.42-.23l-2.11,4.84c-.78,1.79-2.42,2.73-4.99,2.73-6.08,0-9.91-3.59-9.91-9.28,0-.94.08-1.87.23-2.89l2.42-15.05c.08-.23.08-.7.08-1.25,0-1.25-.86-2.03-2.5-2.03-3.51,0-7.49,2.89-8.19,7.49l-3.51,22.15h-10.53l4.13-25.97c.16-1.01.16-1.56.16-1.72,0-2.5-1.33-3.74-3.98-3.74-.62,0-1.4.16-2.26.39l2.5-5.07c.55-1.17,2.57-2.26,5.3-2.26,3.51,0,5.85,1.56,7.33,4.76,3.51-3.2,7.72-4.76,12.32-4.76"/>
    <path class="cls-1" d="M302.2,99.31h1.64c1.25,0,2.65-.23,4.06-.7l-1.56,5.93c-.62,2.18-1.95,3.2-4.21,3.2h-1.25l-2.42,15.29c-.16.94-.23,1.72-.23,2.34,0,2.88,1.25,4.13,4.13,4.13,1.17,0,2.34-.31,3.74-.86l-.78,4.76c-.55,3.28-2.18,4.21-7.25,4.21-7.25,0-10.69-3.12-10.69-9.59,0-1.56.23-3.98.7-7.1l2.11-13.18c-1.72,0-3.28.23-4.6.62l.78-4.99c.39-2.65,1.87-4.06,4.37-4.06h1.25l.47-3.04c.08-.62.16-1.25.16-1.95,0-1.41-.23-2.89-.62-4.45l12.01-1.95-1.79,11.39Z"/>
    <path class="cls-1" d="M345.57,97.44c-2.89-2.65-6.32-3.98-9.59-3.98-3.9,0-6.4,1.95-6.4,4.84,0,2.57,2.26,5.38,5.93,9.59,4.6,5.31,8.11,9.2,8.11,15.68,0,9.28-7.8,16.14-19.42,16.14-7.88,0-11.7-2.5-11.7-7.41v-6.55c3.98,2.81,8.43,4.21,12.4,4.21,4.52,0,7.02-2.03,7.02-5.23s-2.42-5.85-5.54-9.75c-4.52-5.69-8.03-9.91-8.03-15.76,0-8.27,7.1-14.74,16.92-14.74,7.41,0,11.15,1.87,11.15,5.62,0,.23-.08.47-.08.7l-.78,6.63Z"/>
    <path class="cls-1" d="M359.45,137.53c-7.33,0-12.56-5.62-12.56-14.59,0-5.93,1.64-11.23,4.84-15.6,4.13-5.69,9.98-8.81,15.44-8.81,3.51,0,6.16,1.17,8.03,3.51.86-1.87,2.03-2.73,3.59-2.73h6.86c-3.98,8.5-6.01,18.17-6.01,25.51,0,4.37,1.72,6.32,5.38,6.32h.62c-.62,3.98-3.2,6.24-6.63,6.24s-6.4-2.18-7.72-6.08c-3.04,4.06-7.18,6.24-11.85,6.24M361.24,111.94c-2.26,3.43-3.51,7.49-3.51,10.84,0,3.9,1.4,5.85,3.98,5.85,1.79,0,3.74-1.33,5.46-3.9,2.03-3.12,3.82-8.97,3.82-13.18,0-2.5-1.25-4.05-3.2-4.05-2.26,0-4.6,1.56-6.55,4.44"/>
    <path class="cls-1" d="M399.78,122.24c-.31,1.87-.47,3.28-.47,4.13,0,2.57,1.17,3.9,3.59,3.9.55,0,1.33-.08,2.42-.24l-1.95,4.6c-.94,2.26-2.42,2.96-5.38,2.96-6.32,0-9.75-3.2-9.75-9.2,0-1.64.31-3.82.7-6.47l5.38-34.32c.31-1.87.47-3.2.47-3.9s-.08-1.56-.31-2.73l12.17-1.87-6.86,43.13Z"/>
    <path class="cls-1" d="M423.95,128.32c3.36,0,7.1-1.48,10.84-4.45l-.86,5.07c-.94,5.77-5.15,8.66-12.64,8.66-8.89,0-14.59-5.93-14.59-15.91,0-7.49,3.67-14.82,9.91-19.5,3.28-2.5,7.41-3.9,11.62-3.9,5.77,0,9.83,3.67,9.83,8.89,0,7.33-7.57,13.57-20.59,14.35,0,4.29,2.42,6.79,6.47,6.79M429.34,107.5c0-1.4-1.01-2.42-2.26-2.42-3.28,0-7.41,3.82-9.2,10.53,7.18-.78,11.47-4.83,11.47-8.11"/>
    <path class="cls-1" d="M94.76,108.42c-3-2.26-5.69-4.12-8.06-5.56-2.37-1.44-4.54-2.62-6.51-3.53-1.96-.91-3.77-1.61-5.41-2.08-1.64-.47-3.24-.88-4.79-1.21-2.82-.61-5.3-.73-7.44-.38-2.14.35-3.96.91-5.45,1.67-1.49.76-2.63,1.62-3.43,2.58-.79.96-1.26,1.75-1.39,2.36-.2.94-.25,1.87-.16,2.8.1.93.4,1.78.93,2.56.52.78,1.26,1.46,2.21,2.06.95.6,2.16,1.03,3.63,1.29-.9,1.68-2.38,2.78-4.44,3.33-2.06.54-4.19.57-6.4.1-1.83-.39-3.4-1.05-4.7-1.97-1.3-.92-2.34-1.98-3.12-3.17-.77-1.2-1.29-2.49-1.53-3.87-.25-1.38-.23-2.73.06-4.04.36-1.7,1.19-3.36,2.47-5,1.29-1.64,3.01-3.04,5.18-4.2,2.17-1.16,4.75-1.94,7.77-2.35,3.01-.41,6.4-.21,10.16.59,3.66.79,7.07,1.92,10.22,3.41,3.14,1.48,6,3.07,8.56,4.75,2.56,1.68,4.84,3.37,6.84,5.08,1.99,1.71,3.69,3.17,5.1,4.41l-.3.38ZM72.72,79.51c.62.77,1.5,1.77,2.64,3,1.14,1.23,2.41,2.58,3.81,4.06,1.4,1.48,2.86,2.99,4.38,4.52,1.52,1.53,2.95,2.97,4.31,4.31,1.36,1.35,2.59,2.54,3.7,3.56,1.11,1.02,1.93,1.76,2.47,2.22l.44-.35c-1.39-1.77-2.89-3.9-4.49-6.38-1.61-2.48-3.01-5.18-4.2-8.09-1.19-2.91-2.06-5.98-2.59-9.22-.53-3.24-.45-6.5.26-9.79.5-2.3,1.26-4.41,2.31-6.33,1.05-1.91,2.34-3.5,3.86-4.78,1.53-1.27,3.28-2.16,5.25-2.67,1.98-.51,4.16-.51,6.56,0,2.58.56,4.6,1.43,6.04,2.62,1.44,1.19,2.47,2.46,3.09,3.8.62,1.34.89,2.66.81,3.97-.08,1.31-.36,2.36-.82,3.14-1.74-1.06-3.63-1.75-5.68-2.06-2.05-.32-4-.19-5.87.36-1.87.56-3.51,1.59-4.94,3.11-1.43,1.51-2.42,3.56-2.98,6.14-.45,2.12-.51,4.6-.16,7.45.35,2.85,1.23,6.12,2.65,9.82.78,2.09,1.89,4.25,3.33,6.5,1.43,2.25,3.15,4.37,5.16,6.38,2,2,4.23,3.76,6.68,5.27,2.45,1.51,5.07,2.56,7.84,3.16,1.74.37,3.61.51,5.63.4,2.01-.11,3.93-.5,5.74-1.17,1.81-.66,3.41-1.68,4.78-3.03,1.37-1.35,2.29-3.09,2.74-5.2.29-1.36.3-2.6.03-3.72-.28-1.12-.73-2.1-1.36-2.94-.63-.85-1.39-1.54-2.28-2.08-.89-.53-1.81-.91-2.75-1.11-1.22-.26-2.3-.32-3.24-.18-.94.14-1.77.41-2.49.79-.72.38-1.34.83-1.84,1.34-.5.51-.93,1.02-1.28,1.53-.46-.15-.98-.42-1.56-.81-.58-.39-1.07-.9-1.48-1.53-.41-.63-.71-1.4-.91-2.3-.2-.91-.17-1.96.1-3.19.15-.7.49-1.53,1.01-2.47.52-.94,1.29-1.8,2.29-2.57,1-.77,2.25-1.35,3.76-1.74,1.51-.39,3.34-.35,5.51.12,2.54.54,4.69,1.53,6.48,2.97,1.78,1.44,3.17,3.07,4.19,4.88,1.01,1.82,1.67,3.71,1.98,5.7.31,1.98.29,3.8-.06,5.44-.55,2.59-1.68,4.85-3.38,6.8-1.69,1.95-3.76,3.49-6.19,4.64-2.44,1.15-5.1,1.88-7.99,2.2-2.89.31-5.82.15-8.78-.49-4-.85-7.85-2.25-11.57-4.18-3.72-1.93-7.4-4.36-11.04-7.31-3.64-2.94-7.29-6.36-10.93-10.23-3.64-3.88-7.36-8.19-11.16-12.94l2.21-1.37ZM113.79,109.4c-6.57-3.77-11.09-7.91-13.56-12.42-2.47-4.51-3.17-9.28-2.09-14.31.4-1.88,1.04-3.39,1.93-4.52.89-1.14,1.87-2,2.95-2.58,1.08-.58,2.19-.93,3.32-1.06,1.13-.13,2.12-.1,2.97.08,2.11.45,3.66,1.44,4.64,2.95.98,1.51,1,3.18.07,4.99-.7-.4-1.52-.52-2.46-.38-.94.14-1.87.52-2.79,1.13-.91.61-1.74,1.47-2.46,2.57-.73,1.1-1.26,2.42-1.59,3.97-.4,1.88-.46,3.72-.15,5.53.3,1.81.88,3.54,1.73,5.2.85,1.66,1.93,3.19,3.25,4.6,1.32,1.41,2.82,2.69,4.49,3.84l-.23.39Z"/>
    <path class="cls-1" d="M51.29,53.31c-.28.18-.59.4-.91.65-.32.25-.57.53-.73.84-.67-.53-1.35-1.16-2.03-1.87-.68-.71-1.28-1.47-1.8-2.27-.52-.8-.9-1.65-1.14-2.57-.25-.91-.27-1.84-.07-2.78.2-.94.66-1.73,1.39-2.36.72-.63,1.58-.84,2.57-.63.7.15,1.29.5,1.77,1.04.47.54.84,1.14,1.09,1.78-.68-.05-1.28.13-1.81.53-.53.4-.87.96-1.02,1.66-.26,1.22-.08,2.33.54,3.32.62,1,1.34,1.87,2.16,2.64"/>
  </g>
  <g>
    <path class="cls-2" d="M277.18,48.77c-1.8-1.65-3.93-2.48-5.97-2.48-2.43,0-3.98,1.21-3.98,3.01,0,1.6,1.41,3.35,3.69,5.97,2.86,3.3,5.05,5.73,5.05,9.76,0,5.78-4.85,10.05-12.09,10.05-4.9,0-7.28-1.55-7.28-4.61v-4.08c2.48,1.75,5.24,2.62,7.72,2.62,2.82,0,4.37-1.26,4.37-3.25s-1.51-3.64-3.45-6.07c-2.82-3.54-5-6.17-5-9.81,0-5.15,4.42-9.18,10.54-9.18,4.61,0,6.94,1.17,6.94,3.5,0,.15-.05.29-.05.44l-.48,4.13Z"/>
    <path class="cls-2" d="M292.96,56.54c0-.82-.63-1.31-1.6-1.31s-2.14.58-3.25,1.75c-2.09,2.19-3.4,5.54-3.4,8.45,0,2.62,1.46,4.13,3.93,4.13s4.91-1.02,7.43-3.16l-.58,3.98c-.15.87-.24,1.65-.87,2.28-1.26,1.36-4.13,2.52-7.23,2.52-6.07,0-9.57-3.49-9.57-9.52,0-4.08,1.55-8.01,4.51-11.02,2.43-2.48,5.68-3.88,9.23-3.88,4.23,0,6.94,2.38,6.94,5.58s-2.27,4.53-5.03,4.53c-.88,0-1.63-.37-1.63-1.41,0-1.18,1.12-1.3,1.12-2.93"/>
    <path class="cls-2" d="M308.41,52.8c1.89-1.36,3.83-1.99,6.02-1.99,3.83,0,6.12,1.89,6.12,5.15,0,.63-.05,1.16-.15,1.65l-1.5,9.71c-.05.44-.1.82-.1,1.12,0,1.46.78,2.14,2.38,2.14.44,0,.92-.05,1.5-.15l-1.16,2.77c-.53,1.26-1.65,1.89-3.3,1.89-3.69,0-6.12-2.23-6.12-5.63,0-.49.05-1.12.2-1.89l1.5-9.37c.05-.29.05-.54.05-.78,0-.78-.53-1.26-1.41-1.26-2.53,0-4.81,1.85-5.24,4.66l-2.18,13.79h-6.56l4.91-30.74c.24-1.41.29-2.23.29-2.48,0-.44-.15-.97-.34-1.6l7.33-1.21-2.23,14.23Z"/>
    <path class="cls-2" d="M345.26,60.81c0,8.35-5.34,14.37-12.96,14.37-5.49,0-9.37-3.98-9.37-10.29,0-4.03,1.46-7.77,3.88-10.39,2.38-2.57,5.39-3.84,9.13-3.84,5.73,0,9.32,3.74,9.32,10.15M329.67,65.76c0,2.62,1.26,4.08,3.25,4.08,3.01,0,5.63-4.08,5.63-9.71,0-2.72-1.17-4.18-3.16-4.18-3.06,0-5.73,4.13-5.73,9.81"/>
    <path class="cls-2" d="M369,60.81c0,8.35-5.34,14.37-12.96,14.37-5.49,0-9.37-3.98-9.37-10.29,0-4.03,1.46-7.77,3.88-10.39,2.38-2.57,5.39-3.84,9.13-3.84,5.73,0,9.32,3.74,9.32,10.15M353.42,65.76c0,2.62,1.26,4.08,3.25,4.08,3.01,0,5.63-4.08,5.63-9.71,0-2.72-1.17-4.18-3.16-4.18-3.06,0-5.73,4.13-5.73,9.81"/>
    <path class="cls-2" d="M377.4,65.52c-.2,1.17-.29,2.04-.29,2.57,0,1.6.73,2.43,2.23,2.43.34,0,.83-.05,1.5-.15l-1.21,2.87c-.58,1.41-1.5,1.85-3.35,1.85-3.93,0-6.07-1.99-6.07-5.73,0-1.02.19-2.38.44-4.03l3.35-21.37c.2-1.17.29-1.99.29-2.43s-.05-.97-.19-1.7l7.57-1.16-4.27,26.85Z"/>
    <path class="cls-2" d="M127.62,41c2.57,0,4.71-.05,6.36-.05,1.94,0,3.3.05,4.03.24.92.24,1.17.83,1.17,1.89v1.07l-.44,3.5c-1.6-.63-3.79-.92-6.65-.92-1.07,0-2.19.1-3.35.19l-1.07,6.75h3.84c1.55,0,2.82-.2,3.88-.63l-1.12,7.23c-.88-.49-1.94-.68-3.21-.68h-4.37l-1.55,9.95c-.1.53-.15,1.36-.15,2.33s.15,1.8.49,2.53h-9.37c.97-1.17,1.55-2.96,1.94-5.39l3.84-24.08c.05-.39.1-.92.1-1.6,0-.97-.14-1.75-.58-2.43,2.52.05,4.61.1,6.21.1"/>
    <path class="cls-2" d="M144.03,54.98c1.65-2.91,3.74-4.37,6.12-4.37,1.5,0,2.23.68,2.23,1.94,0,.2,0,.39-.05.58l-.58,3.83c-.87-.44-1.8-.68-2.77-.68-3.2,0-4.66,2.09-5.34,6.41l-1.84,11.7h-6.56l3.01-19.18c.1-.53.1-1.12.1-1.65,0-.58-.05-1.31-.19-2.09l6.6-1.07-.73,4.56Z"/>
    <path class="cls-2" d="M159.18,65.91c-.14.92-.24,1.55-.24,1.99,0,1.55.82,2.38,2.28,2.38.58,0,1.12,0,1.6-.1l-1.36,2.82c-.68,1.41-1.46,1.89-3.35,1.89-3.69,0-6.02-2.33-6.02-6.21,0-.73.1-1.6.29-2.72l1.65-10.63c.1-.68.14-1.26.14-1.84,0-.63-.05-1.26-.19-1.89l7.62-1.16-2.43,15.49ZM163.69,42.94c0,2.14-1.75,3.89-3.98,3.89s-3.59-1.31-3.59-3.25c0-2.14,1.75-3.88,4.13-3.88,2.04,0,3.45,1.36,3.45,3.25"/>
    <path class="cls-2" d="M173.21,69.11c2.09,0,4.42-.92,6.75-2.77l-.53,3.16c-.58,3.59-3.21,5.39-7.87,5.39-5.54,0-9.08-3.69-9.08-9.91,0-4.66,2.28-9.23,6.17-12.14,2.04-1.55,4.61-2.43,7.23-2.43,3.59,0,6.12,2.28,6.12,5.53,0,4.56-4.71,8.45-12.82,8.94,0,2.67,1.5,4.22,4.03,4.22M176.56,56.15c0-.88-.63-1.51-1.41-1.51-2.04,0-4.61,2.38-5.73,6.55,4.47-.48,7.14-3.01,7.14-5.05"/>
    <path class="cls-2" d="M198.7,50.52c3.93,0,6.22,1.94,6.22,5.15,0,.68-.1,1.41-.19,2.18l-1.46,9.27c-.05.44-.1.83-.1,1.12,0,1.46.83,2.14,2.43,2.14.44,0,.92-.05,1.5-.15l-1.31,3.01c-.48,1.12-1.5,1.7-3.11,1.7-3.79,0-6.17-2.23-6.17-5.78,0-.58.05-1.17.15-1.8l1.5-9.37c.05-.15.05-.44.05-.78,0-.78-.53-1.26-1.55-1.26-2.19,0-4.66,1.8-5.1,4.66l-2.19,13.79h-6.55l2.57-16.17c.1-.63.1-.97.1-1.07,0-1.55-.83-2.33-2.48-2.33-.39,0-.87.1-1.41.24l1.55-3.16c.34-.73,1.6-1.41,3.3-1.41,2.18,0,3.64.97,4.56,2.96,2.19-1.99,4.81-2.96,7.67-2.96"/>
    <path class="cls-2" d="M228.76,63.63c-.24,1.5-.39,2.72-.39,3.5,0,2.38,1.07,3.64,3.06,3.64h.34l-.53,1.6c-.49,1.5-1.7,2.33-3.35,2.33-2.33,0-4.18-1.36-5-3.79-1.94,2.62-4.42,3.88-7.43,3.88-4.95,0-8.21-3.54-8.21-9.18,0-4.76,2.18-9.47,5.78-12.43,2.09-1.7,4.51-2.62,7.09-2.62,1.55,0,2.86.34,3.83,1.12l1.26-8.21c.15-.92.24-1.65.24-2.14,0-.54-.05-1.07-.19-1.7l7.48-1.17-3.98,25.15ZM220.26,55.95c-1.07,0-2.43.78-3.55,2.33-1.6,2.19-2.52,5.1-2.52,7.67,0,2.28.87,3.45,2.38,3.45s3.11-1.36,4.27-3.98c1.07-2.53,1.6-5.29,1.6-6.94s-.83-2.53-2.19-2.53"/>
    <path class="cls-2" d="M248.96,57.95c-1.65-1.55-3.69-2.38-5.63-2.38-1.41,0-2.14.54-2.14,1.51s1.07,1.75,2.77,3.25c2.67,2.28,4.61,3.88,4.61,6.89,0,4.32-3.88,7.58-10.24,7.58-4.23,0-6.56-1.26-6.56-3.4,0-.44.05-.92.14-1.46l.44-2.67c1.7,1.55,4.03,2.43,6.26,2.43,1.79,0,2.86-.87,2.86-2.09s-1.02-2.09-2.62-3.54c-2.52-2.28-4.27-3.93-4.27-6.7,0-3.84,3.45-6.75,8.88-6.75,4.23,0,6.85,1.51,6.85,3.21,0,.39-.1.87-.29,1.36l-1.07,2.77Z"/>
    <path class="cls-2" d="M70.51,80.88c-1.6.84-3.26,1.44-4.96,1.81-1.7.37-3.16.43-4.39.17-1.32-.28-2.34-.81-3.09-1.58-.75-.78-1.29-1.69-1.62-2.74-.34-1.06-.5-2.17-.5-3.35,0-1.18.13-2.31.36-3.39-.81,1-1.82,1.91-3.05,2.7-1.23.79-2.52,1.04-3.88.75-1.03-.22-1.86-.77-2.49-1.64-.63-.87-1.09-1.87-1.39-2.99-.3-1.12-.46-2.27-.47-3.46-.02-1.18.06-2.17.23-2.97.53-2.44,1.57-4.66,3.12-6.63,1.55-1.98,3.4-3.61,5.55-4.9,2.14-1.28,4.46-2.17,6.95-2.67,2.49-.49,4.93-.49,7.33.03,1.08.23,2.25.65,3.49,1.26,1.25.61,2.37,1.38,3.38,2.31,1,.93,1.8,1.96,2.4,3.09.59,1.13.75,2.33.48,3.6-.16.75-.49,1.38-1,1.89-.5.51-1.09.92-1.78,1.24-.68.32-1.4.56-2.14.72-.75.16-1.47.26-2.17.31.9.39,1.79.89,2.66,1.5.88.6,1.65,1.3,2.32,2.08.67.78,1.16,1.63,1.48,2.56.32.93.36,1.93.13,3.01-.23,1.08-.78,2.13-1.64,3.15-.86,1.02-1.89,1.94-3.1,2.76l-2.21,1.37ZM71.37,71.4c.19-.89.18-1.77-.03-2.63-.21-.85-.54-1.65-1-2.39-.46-.74-1.02-1.41-1.7-2.02-.68-.61-1.39-1.12-2.14-1.53.44,0,.94-.06,1.51-.16.56-.1,1.11-.26,1.65-.49.54-.23,1.01-.53,1.42-.92.4-.38.65-.8.75-1.28.18-.84.07-1.72-.33-2.61-.4-.89-.93-1.72-1.61-2.48-.67-.76-1.44-1.41-2.3-1.97-.86-.55-1.67-.91-2.42-1.08-.28-.06-.58-.12-.88-.19-.3-.07-.63-.11-.97-.13.83.72,1.46,1.67,1.9,2.84.44,1.18.54,2.3.31,3.38-.22,1.03-.71,2-1.47,2.89-.76.89-1.64,1.63-2.64,2.2-1.01.57-2.08.98-3.21,1.23-1.14.25-2.22.26-3.25.04-1.5-.32-2.63-.97-3.38-1.94-.75-.97-1.24-2.17-1.48-3.6-.5.73-.86,1.6-1.08,2.64-.14.66-.19,1.47-.15,2.43.04.97.19,1.91.46,2.83.27.92.66,1.73,1.18,2.43.51.7,1.17,1.14,1.97,1.31.89.19,1.82-.05,2.77-.73.96-.68,1.68-1.36,2.17-2.04-.1.92-.08,1.87.04,2.89.13,1.01.39,1.95.8,2.82.4.87.95,1.64,1.64,2.31.69.66,1.56,1.11,2.59,1.33.85.18,1.75.16,2.7-.05.95-.21,1.87-.57,2.74-1.07.87-.5,1.62-1.12,2.24-1.84.62-.73,1.03-1.54,1.22-2.43M62.59,54.55c.1-.47.02-.89-.24-1.27-.26-.37-.63-.61-1.1-.71-.61-.13-1.41-.06-2.41.22-.99.28-1.97.67-2.94,1.17-.97.5-1.83,1.08-2.58,1.73-.76.65-1.2,1.3-1.35,1.97-.1.47-.02.89.24,1.27.26.38.65.62,1.17.73.61.13,1.4.05,2.37-.23.97-.28,1.94-.68,2.91-1.18.97-.5,1.83-1.1,2.59-1.77.76-.67,1.2-1.31,1.33-1.93"/>
  </g>
</svg>