<?xml version="1.0" encoding="UTF-8"?>
<svg id="Layer_1" data-name="Layer 1" xmlns="http://www.w3.org/2000/svg" viewBox="0 0 384.56 263.02">
  <defs>
    <style>
      .cls-1 {
        fill: #fff45f;
      }

      .cls-2 {
        fill: #fff;
      }
    </style>
  </defs>
  <g>
    <path class="cls-1" d="M195.34,170.36c-.16.94-.23,2.11-.23,3.35,0,1.33.16,2.34.7,3.28h-14.82c1.48-1.64,2.57-4.52,3.2-8.58l4.99-31.9c.16-.94.23-1.72.23-2.18,0-1.95-1.56-3.12-4.52-3.12-.31,0-1.01,0-2.03.23l2.96-6.16c.86-1.79,2.42-2.65,4.76-2.65,2.88,0,5.07,1.09,6.94,3.43,3.12-2.5,6.94-3.67,11.62-3.67,8.89,0,14.74,5.69,14.74,14.59,0,6.08-3.59,12.01-10.06,15.68-3.43,1.95-8.11,3.04-13.73,3.04h-2.5l-2.26,14.66ZM200.02,147.12c7.88,0,12.79-4.45,12.79-9.98,0-3.28-2.03-5.3-5.38-5.3-2.11,0-4.37.78-6.47,2.5l-2.11,12.79h1.17Z"/>
    <path class="cls-1" d="M234.81,162.4c-.31,1.87-.47,3.28-.47,4.13,0,2.57,1.17,3.9,3.59,3.9.55,0,1.33-.08,2.42-.23l-1.95,4.6c-.94,2.26-2.42,2.96-5.38,2.96-6.32,0-9.75-3.2-9.75-9.2,0-1.64.31-3.82.7-6.47l5.38-34.32c.31-1.87.47-3.2.47-3.9s-.08-1.56-.31-2.73l12.17-1.87-6.86,43.13Z"/>
    <path class="cls-1" d="M254.38,177.69c-7.33,0-12.56-5.62-12.56-14.59,0-5.93,1.64-11.23,4.84-15.6,4.13-5.69,9.98-8.81,15.44-8.81,3.51,0,6.16,1.17,8.03,3.51.86-1.87,2.03-2.73,3.59-2.73h6.86c-3.98,8.5-6.01,18.17-6.01,25.51,0,4.37,1.72,6.32,5.38,6.32h.62c-.62,3.98-3.2,6.24-6.63,6.24s-6.4-2.18-7.72-6.08c-3.04,4.06-7.18,6.24-11.86,6.24ZM256.18,152.11c-2.26,3.43-3.51,7.49-3.51,10.84,0,3.9,1.4,5.85,3.98,5.85,1.79,0,3.74-1.33,5.46-3.9,2.03-3.12,3.82-8.97,3.82-13.18,0-2.5-1.25-4.06-3.2-4.06-2.26,0-4.6,1.56-6.55,4.45Z"/>
    <path class="cls-1" d="M307.97,138.61c6.32,0,9.98,3.12,9.98,8.27,0,1.09-.16,2.26-.31,3.51l-2.34,14.9c-.08.7-.16,1.33-.16,1.79,0,2.34,1.33,3.43,3.9,3.43.7,0,1.48-.08,2.42-.23l-2.11,4.84c-.78,1.79-2.42,2.73-4.99,2.73-6.08,0-9.91-3.59-9.91-9.28,0-.94.08-1.87.23-2.89l2.42-15.05c.08-.23.08-.7.08-1.25,0-1.25-.86-2.03-2.5-2.03-3.51,0-7.49,2.89-8.19,7.49l-3.51,22.15h-10.53l4.13-25.97c.16-1.01.16-1.56.16-1.72,0-2.5-1.33-3.74-3.98-3.74-.62,0-1.4.16-2.26.39l2.5-5.07c.55-1.17,2.57-2.26,5.3-2.26,3.51,0,5.85,1.56,7.33,4.76,3.51-3.2,7.72-4.76,12.32-4.76Z"/>
    <path class="cls-1" d="M339.63,139.47h1.64c1.25,0,2.65-.23,4.06-.7l-1.56,5.93c-.62,2.18-1.95,3.2-4.21,3.2h-1.25l-2.42,15.29c-.16.94-.23,1.72-.23,2.34,0,2.89,1.25,4.13,4.13,4.13,1.17,0,2.34-.31,3.74-.86l-.78,4.76c-.55,3.28-2.18,4.21-7.25,4.21-7.25,0-10.69-3.12-10.69-9.59,0-1.56.23-3.98.7-7.1l2.11-13.18c-1.72,0-3.28.23-4.6.62l.78-4.99c.39-2.65,1.87-4.06,4.37-4.06h1.25l.47-3.04c.08-.62.16-1.25.16-1.95,0-1.4-.23-2.89-.62-4.45l12.01-1.95-1.79,11.39Z"/>
    <g>
      <path class="cls-1" d="M159.7,183.95c-2.74-2.52-5.99-3.77-9.1-3.77-3.7,0-6.07,1.85-6.07,4.59,0,2.44,2.15,5.11,5.62,9.1,4.37,5.03,7.7,8.73,7.7,14.87,0,8.81-7.4,15.32-18.43,15.32-7.47,0-11.1-2.37-11.1-7.03v-6.21c3.77,2.66,7.99,4,11.77,4,4.29,0,6.66-1.92,6.66-4.96s-2.29-5.55-5.25-9.25c-4.29-5.4-7.62-9.4-7.62-14.95,0-7.84,6.73-13.99,16.06-13.99,7.03,0,10.58,1.78,10.58,5.33,0,.22-.07.44-.07.67l-.74,6.29Z"/>
      <path class="cls-1" d="M172.87,221.99c-6.96,0-11.91-5.33-11.91-13.84,0-5.62,1.55-10.66,4.59-14.8,3.92-5.4,9.47-8.36,14.65-8.36,3.33,0,5.85,1.11,7.62,3.33.81-1.78,1.92-2.59,3.4-2.59h6.51c-3.77,8.07-5.7,17.24-5.7,24.2,0,4.14,1.63,5.99,5.11,5.99h.59c-.59,3.77-3.03,5.92-6.29,5.92s-6.07-2.07-7.33-5.77c-2.89,3.85-6.81,5.92-11.25,5.92ZM174.57,197.72c-2.15,3.26-3.33,7.1-3.33,10.29,0,3.7,1.33,5.55,3.77,5.55,1.7,0,3.55-1.26,5.18-3.7,1.92-2.96,3.63-8.51,3.63-12.51,0-2.37-1.18-3.85-3.03-3.85-2.15,0-4.37,1.48-6.22,4.22Z"/>
      <path class="cls-1" d="M211.12,207.49c-.3,1.78-.44,3.11-.44,3.92,0,2.44,1.11,3.7,3.4,3.7.52,0,1.26-.07,2.29-.22l-1.85,4.37c-.89,2.15-2.29,2.81-5.11,2.81-5.99,0-9.25-3.03-9.25-8.73,0-1.55.3-3.63.67-6.14l5.11-32.56c.3-1.78.44-3.03.44-3.7s-.07-1.48-.3-2.59l11.54-1.78-6.51,40.92Z"/>
      <path class="cls-1" d="M234.06,213.26c3.18,0,6.73-1.41,10.29-4.22l-.81,4.81c-.89,5.48-4.88,8.21-11.99,8.21-8.44,0-13.84-5.62-13.84-15.1,0-7.1,3.48-14.06,9.4-18.5,3.11-2.37,7.03-3.7,11.03-3.7,5.48,0,9.32,3.48,9.32,8.44,0,6.96-7.18,12.88-19.54,13.62,0,4.07,2.29,6.44,6.14,6.44ZM239.17,193.5c0-1.33-.96-2.29-2.15-2.29-3.11,0-7.03,3.63-8.73,9.99,6.81-.74,10.88-4.59,10.88-7.7Z"/>
    </g>
    <path class="cls-1" d="M150.93,80.56c-2.13-1.59-4.04-2.9-5.72-3.91-1.68-1.01-3.22-1.84-4.61-2.48-1.39-.64-2.67-1.13-3.83-1.46-1.16-.33-2.29-.61-3.39-.85-2-.42-3.75-.5-5.26-.25-1.51.25-2.8.65-3.85,1.2-1.05.54-1.86,1.16-2.42,1.83-.56.68-.89,1.24-.98,1.67-.14.66-.18,1.33-.11,1.98.07.66.29,1.26.66,1.81.37.55.89,1.03,1.57,1.45.68.42,1.53.72,2.57.91-.63,1.19-1.68,1.97-3.13,2.36-1.45.39-2.96.42-4.53.09-1.3-.27-2.41-.73-3.33-1.38-.92-.65-1.66-1.39-2.21-2.24-.55-.85-.92-1.76-1.09-2.73-.18-.98-.17-1.93.03-2.86.25-1.2.83-2.38,1.74-3.54.91-1.16,2.12-2.16,3.65-2.98,1.53-.82,3.36-1.38,5.49-1.68,2.13-.3,4.53-.17,7.19.39,2.59.55,5.01,1.34,7.24,2.39,2.23,1.04,4.25,2.16,6.07,3.34,1.82,1.18,3.43,2.37,4.85,3.58,1.41,1.2,2.62,2.24,3.62,3.11l-.21.27ZM135.27,60.16c.44.54,1.07,1.25,1.87,2.12.81.86,1.71,1.82,2.71,2.86,1,1.04,2.03,2.1,3.11,3.18,1.08,1.08,2.1,2.09,3.06,3.04.96.95,1.84,1.79,2.62,2.51.79.72,1.37,1.24,1.75,1.57l.31-.25c-.99-1.25-2.05-2.75-3.2-4.5-1.14-1.75-2.14-3.66-2.99-5.71-.85-2.06-1.47-4.23-1.86-6.52-.39-2.29-.33-4.6.16-6.92.34-1.63.88-3.12,1.62-4.48.74-1.36,1.64-2.49,2.72-3.39,1.08-.9,2.31-1.54,3.71-1.9,1.4-.37,2.95-.37,4.64-.01,1.83.39,3.25,1,4.28,1.84,1.02.84,1.75,1.73,2.2,2.68.44.94.64,1.88.58,2.81-.06.93-.25,1.67-.57,2.22-1.23-.75-2.57-1.23-4.02-1.45-1.45-.22-2.83-.13-4.15.27-1.32.4-2.48,1.14-3.49,2.21-1.01,1.07-1.7,2.52-2.09,4.35-.32,1.5-.35,3.25-.09,5.27.25,2.02.89,4.33,1.9,6.94.56,1.47,1.35,3,2.37,4.59,1.02,1.59,2.24,3.09,3.66,4.5,1.42,1.41,3,2.65,4.74,3.71,1.74,1.06,3.59,1.8,5.55,2.21,1.23.26,2.56.35,3.98.27,1.42-.08,2.78-.36,4.06-.84,1.28-.48,2.41-1.2,3.37-2.16.97-.96,1.61-2.19,1.92-3.69.2-.96.21-1.84,0-2.63-.2-.79-.52-1.48-.97-2.08-.45-.6-.99-1.08-1.62-1.46-.63-.38-1.28-.64-1.95-.78-.87-.18-1.63-.22-2.29-.12-.66.1-1.25.29-1.76.57-.51.27-.94.59-1.3.95-.35.36-.65.72-.91,1.09-.33-.1-.69-.29-1.1-.57-.41-.28-.76-.64-1.05-1.08-.29-.44-.51-.98-.65-1.62-.14-.64-.12-1.39.06-2.25.11-.5.34-1.08.71-1.75.37-.67.9-1.28,1.61-1.82.71-.55,1.59-.96,2.66-1.24,1.07-.28,2.37-.26,3.9.07,1.8.38,3.33,1.07,4.59,2.09,1.26,1.01,2.25,2.16,2.97,3.44.72,1.28,1.19,2.62,1.42,4.03.22,1.4.21,2.69-.03,3.85-.39,1.83-1.18,3.44-2.37,4.82-1.19,1.38-2.65,2.48-4.37,3.3-1.72.82-3.6,1.34-5.65,1.57-2.05.23-4.12.12-6.21-.32-2.83-.6-5.56-1.57-8.19-2.93-2.63-1.35-5.24-3.07-7.83-5.14-2.59-2.07-5.17-4.48-7.76-7.21-2.59-2.73-5.23-5.77-7.93-9.12l1.56-.98ZM164.4,81.21c-4.65-2.65-7.86-5.57-9.62-8.75-1.76-3.18-2.27-6.56-1.52-10.12.28-1.33.73-2.4,1.35-3.21.62-.81,1.31-1.42,2.08-1.83.76-.41,1.55-.66,2.35-.75.8-.09,1.5-.08,2.1.05,1.5.32,2.59,1.01,3.29,2.08.7,1.07.72,2.25.06,3.53-.5-.28-1.08-.37-1.74-.26-.66.1-1.32.37-1.97.81-.65.44-1.23,1.04-1.74,1.82-.51.78-.88,1.72-1.11,2.81-.28,1.33-.31,2.64-.1,3.92.22,1.28.63,2.5,1.23,3.67.6,1.17,1.37,2.25,2.31,3.25.94,1,2,1.9,3.18,2.7l-.16.28Z"/>
    <path class="cls-1" d="M120.04,41.68c-.2.13-.42.29-.64.46-.23.18-.4.37-.52.59-.48-.38-.96-.82-1.44-1.32-.49-.5-.91-1.03-1.28-1.6-.37-.56-.64-1.17-.82-1.81-.18-.65-.2-1.3-.05-1.97.14-.66.46-1.22.98-1.67.51-.45,1.12-.6,1.82-.45.5.11.91.35,1.25.73.34.38.6.8.78,1.26-.48-.03-.91.09-1.28.38-.37.29-.61.68-.72,1.18-.18.87-.05,1.65.39,2.35.44.7.96,1.32,1.54,1.86Z"/>
  </g>
  <g>
    <g>
      <path class="cls-2" d="M61.89,133.26c-2-1.84-4.37-2.75-6.64-2.75-2.7,0-4.43,1.35-4.43,3.35,0,1.78,1.57,3.73,4.1,6.64,3.19,3.67,5.62,6.37,5.62,10.85,0,6.43-5.4,11.18-13.45,11.18-5.45,0-8.1-1.73-8.1-5.13v-4.54c2.75,1.94,5.83,2.92,8.59,2.92,3.13,0,4.86-1.4,4.86-3.62s-1.67-4.05-3.83-6.75c-3.13-3.94-5.56-6.86-5.56-10.91,0-5.72,4.91-10.21,11.72-10.21,5.13,0,7.72,1.3,7.72,3.89,0,.16-.05.32-.05.49l-.54,4.59Z"/>
      <path class="cls-2" d="M79.44,141.9c0-.92-.7-1.46-1.78-1.46s-2.38.65-3.62,1.94c-2.32,2.43-3.78,6.16-3.78,9.4,0,2.92,1.62,4.59,4.37,4.59s5.45-1.13,8.26-3.51l-.65,4.43c-.16.97-.27,1.84-.97,2.54-1.4,1.51-4.59,2.81-8.05,2.81-6.75,0-10.64-3.89-10.64-10.58,0-4.54,1.73-8.91,5.02-12.26,2.7-2.75,6.32-4.32,10.26-4.32,4.7,0,7.72,2.65,7.72,6.21s-2.53,5.04-5.59,5.04c-.98,0-1.81-.41-1.81-1.57,0-1.31,1.25-1.44,1.25-3.26Z"/>
      <path class="cls-2" d="M96.61,137.74c2.11-1.51,4.27-2.21,6.7-2.21,4.27,0,6.8,2.11,6.8,5.72,0,.7-.05,1.3-.16,1.84l-1.67,10.8c-.05.49-.11.92-.11,1.24,0,1.62.86,2.38,2.65,2.38.49,0,1.03-.05,1.67-.16l-1.3,3.08c-.59,1.4-1.84,2.11-3.67,2.11-4.1,0-6.8-2.48-6.8-6.26,0-.54.05-1.24.22-2.11l1.67-10.42c.05-.32.05-.59.05-.86,0-.86-.59-1.4-1.57-1.4-2.81,0-5.35,2.05-5.83,5.18l-2.43,15.34h-7.29l5.45-34.18c.27-1.57.32-2.48.32-2.75,0-.49-.16-1.08-.38-1.78l8.15-1.35-2.48,15.82Z"/>
      <path class="cls-2" d="M137.59,146.65c0,9.29-5.94,15.98-14.42,15.98-6.1,0-10.42-4.43-10.42-11.45,0-4.48,1.62-8.64,4.32-11.56,2.65-2.86,5.99-4.27,10.15-4.27,6.37,0,10.37,4.16,10.37,11.29ZM120.26,152.16c0,2.92,1.4,4.54,3.62,4.54,3.35,0,6.26-4.54,6.26-10.8,0-3.02-1.3-4.64-3.51-4.64-3.4,0-6.37,4.59-6.37,10.91Z"/>
      <path class="cls-2" d="M164,146.65c0,9.29-5.94,15.98-14.42,15.98-6.1,0-10.42-4.43-10.42-11.45,0-4.48,1.62-8.64,4.32-11.56,2.65-2.86,5.99-4.27,10.15-4.27,6.37,0,10.37,4.16,10.37,11.29ZM146.67,152.16c0,2.92,1.4,4.54,3.62,4.54,3.35,0,6.26-4.54,6.26-10.8,0-3.02-1.3-4.64-3.51-4.64-3.4,0-6.37,4.59-6.37,10.91Z"/>
      <path class="cls-2" d="M173.34,151.89c-.22,1.3-.32,2.27-.32,2.86,0,1.78.81,2.7,2.48,2.7.38,0,.92-.05,1.67-.16l-1.35,3.19c-.65,1.57-1.67,2.05-3.73,2.05-4.37,0-6.75-2.21-6.75-6.37,0-1.13.22-2.65.49-4.48l3.73-23.76c.22-1.3.32-2.21.32-2.7s-.05-1.08-.22-1.89l8.42-1.3-4.75,29.86Z"/>
    </g>
    <g>
      <path class="cls-2" d="M93.35,77.51c2.86,0,5.24-.05,7.07-.05,2.16,0,3.67.05,4.48.27,1.03.27,1.3.92,1.3,2.11v1.19l-.49,3.89c-1.78-.7-4.21-1.03-7.4-1.03-1.19,0-2.43.11-3.73.22l-1.19,7.51h4.27c1.73,0,3.13-.22,4.32-.7l-1.24,8.05c-.97-.54-2.16-.76-3.56-.76h-4.86l-1.73,11.07c-.11.59-.16,1.51-.16,2.59s.16,2,.54,2.81h-10.42c1.08-1.3,1.73-3.29,2.16-5.99l4.27-26.78c.05-.43.11-1.03.11-1.78,0-1.08-.16-1.94-.65-2.7,2.81.05,5.13.11,6.91.11Z"/>
      <path class="cls-2" d="M111.6,93.06c1.84-3.24,4.16-4.86,6.8-4.86,1.67,0,2.48.76,2.48,2.16,0,.22,0,.43-.05.65l-.65,4.27c-.97-.49-2-.76-3.08-.76-3.56,0-5.18,2.32-5.94,7.13l-2.05,13.01h-7.29l3.35-21.33c.11-.59.11-1.24.11-1.84,0-.65-.05-1.46-.22-2.32l7.34-1.19-.81,5.08Z"/>
      <path class="cls-2" d="M128.44,105.21c-.16,1.03-.27,1.73-.27,2.21,0,1.73.92,2.65,2.54,2.65.65,0,1.24,0,1.78-.11l-1.51,3.13c-.76,1.57-1.62,2.11-3.73,2.11-4.1,0-6.7-2.59-6.7-6.91,0-.81.11-1.78.32-3.02l1.84-11.83c.11-.76.16-1.4.16-2.05,0-.7-.05-1.4-.22-2.11l8.48-1.3-2.7,17.23ZM133.46,79.67c0,2.38-1.94,4.32-4.43,4.32s-4-1.46-4-3.62c0-2.38,1.94-4.32,4.59-4.32,2.27,0,3.83,1.51,3.83,3.62Z"/>
      <path class="cls-2" d="M144.05,108.77c2.32,0,4.91-1.03,7.51-3.08l-.59,3.51c-.65,4-3.56,5.99-8.75,5.99-6.16,0-10.1-4.1-10.1-11.02,0-5.18,2.54-10.26,6.86-13.5,2.27-1.73,5.13-2.7,8.05-2.7,4,0,6.8,2.54,6.8,6.16,0,5.08-5.24,9.4-14.26,9.94,0,2.97,1.67,4.7,4.48,4.7ZM147.77,94.35c0-.97-.7-1.67-1.57-1.67-2.27,0-5.13,2.65-6.37,7.29,4.97-.54,7.94-3.35,7.94-5.62Z"/>
      <path class="cls-2" d="M172.4,88.09c4.37,0,6.91,2.16,6.91,5.72,0,.76-.11,1.57-.22,2.43l-1.62,10.31c-.05.49-.11.92-.11,1.24,0,1.62.92,2.38,2.7,2.38.49,0,1.03-.05,1.67-.16l-1.46,3.35c-.54,1.24-1.67,1.89-3.46,1.89-4.21,0-6.86-2.48-6.86-6.43,0-.65.05-1.3.16-2l1.67-10.42c.05-.16.05-.49.05-.86,0-.86-.59-1.4-1.73-1.4-2.43,0-5.18,2-5.67,5.18l-2.43,15.34h-7.29l2.86-17.98c.11-.7.11-1.08.11-1.19,0-1.73-.92-2.59-2.75-2.59-.43,0-.97.11-1.57.27l1.73-3.51c.38-.81,1.78-1.57,3.67-1.57,2.43,0,4.05,1.08,5.08,3.29,2.43-2.21,5.35-3.29,8.53-3.29Z"/>
      <path class="cls-2" d="M205.82,102.67c-.27,1.67-.43,3.02-.43,3.89,0,2.65,1.19,4.05,3.4,4.05h.38l-.59,1.78c-.54,1.67-1.89,2.59-3.73,2.59-2.59,0-4.64-1.51-5.56-4.21-2.16,2.92-4.91,4.32-8.26,4.32-5.51,0-9.13-3.94-9.13-10.21,0-5.29,2.43-10.53,6.43-13.82,2.32-1.89,5.02-2.92,7.88-2.92,1.73,0,3.19.38,4.27,1.24l1.4-9.13c.16-1.03.27-1.84.27-2.38,0-.59-.05-1.19-.21-1.89l8.31-1.3-4.43,27.97ZM196.37,94.14c-1.19,0-2.7.86-3.94,2.59-1.78,2.43-2.81,5.67-2.81,8.53,0,2.54.97,3.83,2.65,3.83s3.46-1.51,4.75-4.43c1.19-2.81,1.78-5.89,1.78-7.72s-.92-2.81-2.43-2.81Z"/>
      <path class="cls-2" d="M228.29,96.35c-1.84-1.73-4.11-2.65-6.27-2.65-1.56,0-2.37.59-2.37,1.67s1.19,1.94,3.08,3.62c2.97,2.54,5.13,4.32,5.13,7.67,0,4.81-4.32,8.42-11.39,8.42-4.7,0-7.29-1.4-7.29-3.78,0-.49.05-1.03.16-1.62l.49-2.97c1.89,1.73,4.48,2.7,6.97,2.7,2,0,3.19-.97,3.19-2.32s-1.13-2.32-2.92-3.94c-2.81-2.54-4.75-4.37-4.75-7.45,0-4.27,3.83-7.51,9.88-7.51,4.7,0,7.62,1.67,7.62,3.56,0,.43-.11.97-.32,1.51l-1.19,3.08Z"/>
    </g>
    <path class="cls-2" d="M133.71,61.14c-1.13.59-2.3,1.03-3.5,1.29-1.2.27-2.24.31-3.1.13-.93-.2-1.66-.57-2.19-1.11-.53-.55-.91-1.19-1.16-1.94s-.36-1.54-.36-2.37c0-.83.08-1.63.25-2.4-.57.71-1.28,1.35-2.15,1.92-.87.56-1.78.75-2.75.54-.73-.15-1.32-.54-1.76-1.15-.44-.61-.77-1.32-.99-2.11-.21-.79-.33-1.61-.34-2.44-.02-.84.04-1.54.16-2.1.37-1.73,1.09-3.3,2.19-4.7,1.09-1.4,2.4-2.56,3.91-3.48,1.51-.91,3.15-1.55,4.91-1.91,1.76-.36,3.49-.36,5.19,0,.77.16,1.59.46,2.47.89.88.43,1.68.97,2.39,1.62.71.65,1.28,1.38,1.7,2.18.42.8.54,1.65.35,2.55-.11.53-.35.98-.7,1.34-.35.36-.77.66-1.25.88-.48.23-.99.4-1.52.51-.53.11-1.04.19-1.53.22.64.27,1.27.62,1.89,1.05.62.43,1.17.92,1.65,1.47.47.55.82,1.16,1.05,1.81.23.66.26,1.37.1,2.13-.16.77-.55,1.51-1.15,2.23-.61.72-1.33,1.38-2.19,1.96l-1.56.98ZM134.29,54.43c.13-.63.12-1.25-.03-1.86-.15-.6-.39-1.17-.71-1.69-.33-.52-.73-1-1.21-1.43-.48-.43-.99-.79-1.52-1.08.31,0,.67-.04,1.07-.12.4-.07.79-.19,1.17-.35.38-.16.71-.38,1-.65.28-.27.46-.57.53-.9.13-.6.05-1.21-.24-1.85-.28-.63-.66-1.22-1.14-1.75-.48-.54-1.02-1-1.64-1.39-.61-.39-1.19-.64-1.72-.75-.2-.04-.41-.09-.62-.13-.22-.05-.44-.08-.68-.09.59.51,1.04,1.17,1.35,2,.31.83.39,1.63.23,2.39-.15.73-.5,1.42-1.03,2.05-.53.64-1.16,1.16-1.87,1.56-.71.41-1.47.7-2.27.88-.8.18-1.57.19-2.3.04-1.06-.22-1.86-.68-2.4-1.36-.53-.68-.88-1.53-1.05-2.54-.35.52-.61,1.14-.76,1.87-.1.47-.13,1.04-.1,1.72.03.68.14,1.35.34,2,.19.65.47,1.22.84,1.71.37.49.83.8,1.4.92.63.13,1.29-.04,1.96-.52.68-.48,1.19-.97,1.53-1.45-.07.65-.06,1.33.04,2.04.09.71.28,1.38.57,2,.29.62.68,1.16,1.17,1.63.49.47,1.1.78,1.84.93.6.13,1.24.11,1.91-.04.67-.15,1.32-.41,1.93-.77.61-.36,1.14-.79,1.58-1.31.44-.52.72-1.09.86-1.72ZM128.04,42.54c.07-.33.01-.63-.18-.9-.19-.27-.45-.43-.78-.5-.43-.09-1-.04-1.7.16-.7.2-1.4.48-2.08.84-.68.36-1.29.77-1.82,1.23-.53.46-.85.92-.95,1.39-.07.33-.01.63.17.9.19.26.46.44.83.51.43.09.99.04,1.68-.17.69-.2,1.37-.48,2.05-.84.68-.36,1.29-.78,1.83-1.26.53-.48.85-.93.94-1.37Z"/>
  </g>
</svg>