<?xml version="1.0" encoding="UTF-8"?>
<svg id="Layer_1" data-name="Layer 1" xmlns="http://www.w3.org/2000/svg" viewBox="0 0 85.38 63.58">
  <defs>
    <style>
      .cls-1 {
        fill: #fff56d;
      }

      .cls-2 {
        fill: #fff;
      }
    </style>
  </defs>
  <path class="cls-1" d="M45.95,52.43c-2.13-1.59-4.04-2.9-5.72-3.91-1.68-1.01-3.22-1.84-4.61-2.48-1.39-.64-2.67-1.13-3.83-1.46-1.16-.33-2.29-.61-3.39-.85-2-.42-3.75-.5-5.26-.25-1.51.25-2.8.65-3.85,1.2-1.05.54-1.86,1.16-2.42,1.83-.56.68-.89,1.24-.98,1.67-.14.66-.18,1.33-.11,1.98.07.66.29,1.26.66,1.81.37.55.89,1.03,1.57,1.45.68.42,1.53.72,2.57.91-.63,1.19-1.68,1.97-3.13,2.36-1.45.39-2.96.42-4.53.09-1.3-.27-2.41-.73-3.33-1.38-.92-.65-1.66-1.39-2.21-2.24-.55-.85-.92-1.76-1.09-2.73-.18-.98-.17-1.93.03-2.86.25-1.2.83-2.38,1.74-3.54.91-1.16,2.12-2.16,3.65-2.98,1.53-.82,3.36-1.38,5.49-1.68,2.13-.3,4.53-.17,7.19.39,2.59.55,5.01,1.34,7.24,2.39,2.23,1.04,4.25,2.16,6.07,3.34,1.82,1.18,3.43,2.37,4.85,3.58,1.41,1.2,2.62,2.24,3.62,3.11l-.21.27ZM30.28,32.03c.44.54,1.07,1.25,1.87,2.12.81.86,1.71,1.82,2.71,2.86,1,1.04,2.03,2.1,3.11,3.18,1.08,1.08,2.1,2.09,3.06,3.04.96.95,1.84,1.79,2.62,2.51.79.72,1.37,1.24,1.75,1.57l.31-.25c-.99-1.25-2.05-2.75-3.2-4.5-1.14-1.75-2.14-3.66-2.99-5.71-.85-2.06-1.47-4.23-1.86-6.52-.39-2.29-.33-4.6.16-6.92.34-1.63.88-3.12,1.62-4.48.74-1.36,1.64-2.49,2.72-3.39,1.08-.9,2.31-1.54,3.71-1.9,1.4-.37,2.95-.37,4.64-.01,1.83.39,3.25,1,4.28,1.84,1.02.84,1.75,1.73,2.2,2.68.44.94.64,1.88.58,2.81-.06.93-.25,1.67-.57,2.22-1.23-.75-2.57-1.23-4.02-1.45-1.45-.22-2.83-.13-4.15.27-1.32.4-2.48,1.14-3.49,2.21-1.01,1.07-1.7,2.52-2.09,4.35-.32,1.5-.35,3.25-.09,5.27.25,2.02.89,4.33,1.9,6.94.56,1.47,1.35,3,2.37,4.59,1.02,1.59,2.24,3.09,3.66,4.5,1.42,1.41,3,2.65,4.74,3.71,1.74,1.06,3.59,1.8,5.55,2.21,1.23.26,2.56.35,3.98.27,1.42-.08,2.78-.36,4.06-.84,1.28-.48,2.41-1.2,3.37-2.16.97-.96,1.61-2.19,1.92-3.69.2-.96.21-1.84,0-2.63-.2-.79-.52-1.48-.97-2.08-.45-.6-.99-1.08-1.62-1.46-.63-.38-1.28-.64-1.95-.78-.87-.18-1.63-.22-2.29-.12-.66.1-1.25.29-1.76.57-.51.27-.94.59-1.3.95-.35.36-.65.72-.91,1.09-.33-.1-.69-.29-1.1-.57-.41-.28-.76-.64-1.05-1.08-.29-.44-.51-.98-.65-1.62-.14-.64-.12-1.39.06-2.25.11-.5.34-1.08.71-1.75.37-.67.9-1.28,1.61-1.82.71-.55,1.59-.96,2.66-1.24,1.07-.28,2.37-.26,3.9.07,1.8.38,3.33,1.07,4.59,2.09,1.26,1.01,2.25,2.16,2.97,3.44.72,1.28,1.19,2.62,1.42,4.03.22,1.4.21,2.69-.03,3.85-.39,1.83-1.18,3.44-2.37,4.82-1.19,1.38-2.65,2.48-4.37,3.3-1.72.82-3.6,1.34-5.65,1.57-2.05.23-4.12.12-6.21-.32-2.83-.6-5.56-1.57-8.19-2.93-2.63-1.35-5.24-3.07-7.83-5.14-2.59-2.07-5.17-4.48-7.76-7.21-2.59-2.73-5.23-5.77-7.93-9.12l1.56-.98ZM59.41,53.08c-4.65-2.65-7.86-5.57-9.62-8.75-1.76-3.18-2.27-6.56-1.52-10.12.28-1.33.73-2.4,1.35-3.21.62-.81,1.31-1.42,2.08-1.83.76-.41,1.55-.66,2.35-.75.8-.09,1.5-.08,2.1.05,1.5.32,2.59,1.01,3.29,2.08.7,1.07.72,2.25.06,3.53-.5-.28-1.08-.37-1.74-.26-.66.1-1.32.37-1.97.81-.65.44-1.23,1.04-1.74,1.82-.51.78-.88,1.72-1.11,2.81-.28,1.33-.31,2.64-.1,3.92.22,1.28.63,2.5,1.23,3.67.6,1.17,1.37,2.25,2.31,3.25.94,1,2,1.9,3.18,2.7l-.16.28Z"/>
  <path class="cls-1" d="M15.05,13.55c-.2.13-.42.29-.64.46-.23.18-.4.37-.52.59-.48-.38-.96-.82-1.44-1.32-.49-.5-.91-1.03-1.28-1.6-.37-.56-.64-1.17-.82-1.81-.18-.65-.2-1.3-.05-1.97.14-.66.46-1.22.98-1.67.51-.45,1.12-.6,1.82-.45.5.11.91.35,1.25.73.34.38.6.8.78,1.26-.48-.03-.91.09-1.28.38-.37.29-.61.68-.72,1.18-.18.87-.05,1.65.39,2.35.44.7.96,1.32,1.54,1.86Z"/>
  <path class="cls-2" d="M28.72,33.01c-1.13.59-2.3,1.03-3.5,1.29-1.2.27-2.24.31-3.1.13-.93-.2-1.66-.57-2.19-1.11-.53-.55-.91-1.19-1.16-1.94s-.36-1.54-.36-2.37c0-.83.08-1.63.25-2.4-.57.71-1.28,1.35-2.15,1.92-.87.56-1.78.75-2.75.54-.73-.15-1.32-.54-1.76-1.15-.44-.61-.77-1.32-.99-2.11-.21-.79-.33-1.61-.34-2.44-.02-.84.04-1.54.16-2.1.37-1.73,1.09-3.3,2.19-4.7,1.09-1.4,2.4-2.56,3.91-3.48,1.51-.91,3.15-1.55,4.91-1.91,1.76-.36,3.49-.36,5.19,0,.77.16,1.59.46,2.47.89.88.43,1.68.97,2.39,1.62.71.65,1.28,1.38,1.7,2.18.42.8.54,1.65.35,2.55-.11.53-.35.98-.7,1.34-.35.36-.77.66-1.25.88-.48.23-.99.4-1.52.51-.53.11-1.04.19-1.53.22.64.27,1.27.62,1.89,1.05.62.43,1.17.92,1.65,1.47.47.55.82,1.16,1.05,1.81.23.66.26,1.37.1,2.13-.16.77-.55,1.51-1.15,2.23-.61.72-1.33,1.38-2.19,1.96l-1.56.98ZM29.3,26.3c.13-.63.12-1.25-.03-1.86-.15-.6-.39-1.17-.71-1.69-.33-.52-.73-1-1.21-1.43-.48-.43-.99-.79-1.52-1.08.31,0,.67-.04,1.07-.12.4-.07.79-.19,1.17-.35.38-.16.71-.38,1-.65.28-.27.46-.57.53-.9.13-.6.05-1.21-.24-1.85-.28-.63-.66-1.22-1.14-1.75-.48-.54-1.02-1-1.64-1.39-.61-.39-1.19-.64-1.72-.75-.2-.04-.41-.09-.62-.13-.22-.05-.44-.08-.68-.09.59.51,1.04,1.17,1.35,2,.31.83.39,1.63.23,2.39-.15.73-.5,1.42-1.03,2.05-.53.64-1.16,1.16-1.87,1.56-.71.41-1.47.7-2.27.88-.8.18-1.57.19-2.3.04-1.06-.22-1.86-.68-2.4-1.36-.53-.68-.88-1.53-1.05-2.54-.35.52-.61,1.14-.76,1.87-.1.47-.13,1.04-.1,1.72.03.68.14,1.35.34,2,.19.65.47,1.22.84,1.71.37.49.83.8,1.4.92.63.13,1.29-.04,1.96-.52.68-.48,1.19-.97,1.53-1.45-.07.65-.06,1.33.04,2.04.09.71.28,1.38.57,2,.29.62.68,1.16,1.17,1.63.49.47,1.1.78,1.84.93.6.13,1.24.11,1.91-.04.67-.15,1.32-.41,1.93-.77.61-.36,1.14-.79,1.58-1.31.44-.52.72-1.09.86-1.72ZM23.05,14.4c.07-.33.01-.63-.18-.9-.19-.27-.45-.43-.78-.5-.43-.09-1-.04-1.7.16-.7.2-1.4.48-2.08.84-.68.36-1.29.77-1.82,1.23-.53.46-.85.92-.95,1.39-.07.33-.01.63.17.9.19.26.46.44.83.51.43.09.99.04,1.68-.17.69-.2,1.37-.48,2.05-.84.68-.36,1.29-.78,1.83-1.26.53-.48.85-.93.94-1.37Z"/>
</svg>